<svg width="28" height="32" viewBox="0 0 28 32" fill="none" xmlns="http://www.w3.org/2000/svg">
<g clip-path="url(#clip0_1945_3617)">
<path d="M9.85795 32C3.06732 32 0.0280762 27.2707 0.0280762 22.5834C0.0280762 16.937 3.93285 13.1448 9.7462 13.1448L10.0398 13.1514V1.5779C10.0398 1.34586 9.85357 1.15801 9.62349 1.15801L4.34042 1.40773V0H17.5295V1.40773L12.2639 1.15801C12.0141 1.15801 11.8301 1.34586 11.8301 1.5779V4.25635L18.7697 4.22762C21.6512 4.22762 23.838 4.65635 25.2667 5.50276C27.0504 6.56354 27.9532 8.17017 27.9532 10.2785C27.9532 11.9912 27.1994 13.7193 25.889 15.0188C24.4625 16.4331 22.5058 17.211 20.3737 17.211C19.2036 17.211 17.983 16.9812 16.745 16.5282L16.7187 23.4541C16.7187 23.7105 16.5982 23.9536 16.3944 24.1061L14.9285 25.2044V16.5105C14.9285 15.9934 14.6546 15.5204 14.2141 15.2751C12.9717 14.5856 11.4093 14.221 9.69142 14.221C5.92688 14.221 1.8731 16.8508 1.8731 22.6188C1.8731 28.0685 5.91811 31.0099 9.7221 31.0099C11.4619 31.0099 14.6414 30.5547 16.3988 27.5116L16.7231 26.9503V29.8343C14.8255 31.3326 12.6036 31.9934 9.85795 31.9934M17.0956 5.32376C16.8896 5.32818 16.7231 5.50055 16.7231 5.70829V15.0453C17.0408 15.2398 18.2263 15.8254 20.5073 15.8254C23.2486 15.8254 26.0117 14.1414 26.0117 10.3823C26.0117 8.61878 25.4201 7.33039 24.204 6.44641C23.1434 5.68619 21.2743 5.29724 18.6514 5.29724C18.3775 5.29724 17.0956 5.32376 17.0956 5.32376ZM11.8323 13.284C12.9125 13.4343 13.9468 13.7149 14.9087 14.1127L14.9328 5.74144C14.9328 5.52928 14.7619 5.35912 14.5538 5.35912H14.5143L11.8344 5.63757V13.284H11.8323Z" fill="#254D6E"></path>
</g>
<defs>
<clipPath id="clip0_1945_3617">
<rect width="28" height="32" fill="white"></rect>
</clipPath>
</defs>
</svg>