<svg width="141" height="32" viewBox="0 0 141 32" fill="none" xmlns="http://www.w3.org/2000/svg">
<path d="M19.5341 31.3916C17.139 31.3916 14.68 29.699 14.68 25.5475C14.68 21.396 17.1071 19.7035 19.5341 19.7035C21.2586 19.7035 23.1427 20.0548 24.1646 22.6415H24.3243V20.2783C23.3024 19.5438 21.4821 19.0648 19.5341 19.0648C15.8616 19.0648 12.8278 21.5557 12.8278 25.5156C12.8278 29.4755 15.8616 31.9664 19.5341 31.9664C21.2586 31.9664 22.983 31.6151 24.3881 30.721V28.3578H24.2285C23.2066 30.9764 21.2905 31.3277 19.5341 31.3277" fill="#254D6E"></path>
<path d="M36.8098 19.0984C33.1373 19.0984 30.0396 21.5893 30.0396 25.5492C30.0396 29.5091 33.1373 32 36.8098 32C40.4822 32 43.5799 29.4772 43.5799 25.5492C43.5799 21.6213 40.4822 19.0984 36.8098 19.0984ZM36.8098 31.3932C34.3827 31.3932 31.8918 29.7007 31.8918 25.5492C31.8918 21.3977 34.3827 19.7052 36.8098 19.7052C39.2368 19.7052 41.7277 21.3977 41.7277 25.5492C41.7277 29.7007 39.2368 31.3932 36.8098 31.3932Z" fill="#254D6E"></path>
<path d="M60.0899 19.3194L56.3535 29.9216L52.3936 19.3194H50.4137L49.8708 31.8058H50.733L51.1801 21.7783C51.1801 21.5229 51.5314 21.4909 51.6272 21.7145L55.4594 31.8058H56.5451L60.0579 21.8422C60.1538 21.6187 60.4731 21.6506 60.505 21.9061L60.8882 31.8058H62.5808L62.0379 19.3194H60.0899Z" fill="#254D6E"></path>
<path d="M108.821 28.422C108.821 28.6455 108.533 28.7413 108.406 28.5497L101.604 19.2887H99.6875V31.7751H100.55V21.2367C100.55 21.0132 100.837 20.9174 100.965 21.109L108.821 31.7751H109.715V19.2887H108.853V28.422H108.821Z" fill="#254D6E"></path>
<path d="M121.693 25.3563C121.693 25.3563 121.406 25.484 121.31 25.3563L117.605 19.2887H115.817L120.192 26.442V31.7751H121.853V26.442L126.292 19.2887H125.397L121.725 25.3563H121.693Z" fill="#254D6E"></path>
<path d="M87.3314 19.3194L82.4135 31.8058H83.2757L84.9043 27.6543C84.9043 27.6543 85.0321 27.5266 85.1279 27.5266H89.8861C89.8861 27.5266 90.0778 27.5904 90.1097 27.6543L91.7384 31.8058H93.4628L88.5449 19.3194H87.2994H87.3314ZM89.8542 27.2391L89.0239 26.6005C89.0239 26.6005 88.6726 26.4408 88.481 26.4408H85.7346C85.7346 26.4408 85.4792 26.2811 85.5111 26.1214L87.2994 21.5867C87.3633 21.3951 87.6507 21.3951 87.7146 21.5867L89.8861 27.1753C89.8861 27.1753 89.8861 27.2391 89.8223 27.2391" fill="#254D6E"></path>
<path d="M130.888 19.3194C129.738 19.3194 128.812 20.2455 128.812 21.3951C128.812 22.5448 129.738 23.4709 130.888 23.4709C132.037 23.4709 132.964 22.5448 132.964 21.3951C132.964 20.2455 132.037 19.3194 130.888 19.3194ZM130.888 23.2154C129.898 23.2154 129.068 22.417 129.068 21.3951C129.068 20.3732 129.866 19.6068 130.888 19.6068C131.91 19.6068 132.708 20.4051 132.708 21.3951C132.708 22.3851 131.91 23.2154 130.888 23.2154Z" fill="#254D6E"></path>
<path d="M131.272 21.4266C131.272 21.4266 131.527 21.3308 131.623 21.235C131.719 21.1391 131.751 21.0114 131.751 20.8517C131.751 20.724 131.751 20.6282 131.687 20.5643C131.655 20.5005 131.591 20.4366 131.527 20.3727C131.464 20.3408 131.368 20.3088 131.272 20.2769C131.176 20.2769 131.08 20.2769 130.985 20.2769H130.25V22.4165H130.537V21.4904H130.889L131.4 22.4165H131.751L131.176 21.4585H131.24L131.272 21.4266ZM130.889 21.235H130.537V20.5324H130.921C130.921 20.5324 131.016 20.5324 131.08 20.5324C131.144 20.5324 131.176 20.5324 131.24 20.5643C131.304 20.5643 131.336 20.6282 131.368 20.6601C131.4 20.6921 131.432 20.7879 131.432 20.8517C131.432 20.9156 131.432 21.0114 131.368 21.0433C131.304 21.0753 131.304 21.1391 131.24 21.1391C131.176 21.1391 131.144 21.1711 131.08 21.1711C131.016 21.1711 130.953 21.1711 130.921 21.1711" fill="#254D6E"></path>
<path d="M73.6304 19.3194H70.0856V31.8058H71.7462V26.313H73.6623C76.4087 26.313 78.9954 25.4827 78.9954 22.8322C78.9954 20.1816 76.4087 19.3513 73.6623 19.3513M73.5346 25.6105H72.0656L71.6185 25.9618C71.6185 25.9618 71.5227 25.9618 71.5546 25.8979L71.7782 25.355V20.2774C71.7782 20.2774 71.874 20.0539 72.0017 20.0539H73.5665C75.77 20.0539 77.1432 20.7564 77.1432 22.8322C77.1432 24.9079 75.77 25.6105 73.5665 25.6105" fill="#254D6E"></path>
<path d="M25.5679 5.65109C25.5679 5.65109 25.4721 5.87463 25.3444 5.87463H19.0213L18.5104 6.25784C18.5104 6.25784 18.4146 6.25784 18.4465 6.19398L18.8297 5.23594V0.190268H17.1691V12.6767H18.8297V6.89654C18.8297 6.89654 18.9255 6.67299 19.0533 6.67299H25.3763C25.3763 6.67299 25.5999 6.7688 25.5999 6.89654V12.6767H27.2605V0.190268H25.5999V5.61915L25.5679 5.65109Z" fill="#254D6E"></path>
<path d="M34.8303 12.7086H42.7501V11.9422H36.7144C36.7144 11.9422 36.4909 11.8464 36.4909 11.7187V6.89654C36.4909 6.89654 36.5867 6.67299 36.7144 6.67299H41.9836V5.90656H36.8102L36.2993 6.28978C36.2993 6.28978 36.2035 6.28978 36.2354 6.22591L36.4589 5.61915V1.18024C36.4589 1.18024 36.5547 0.956699 36.6825 0.956699H42.7181V0.190268H34.7983V12.6767L34.8303 12.7086Z" fill="#254D6E"></path>
<path d="M60.5041 0.190268H56.9593V12.6767H58.6199V7.18395H60.536C63.2824 7.18395 65.8691 6.35365 65.8691 3.70308C65.8691 1.0525 63.2824 0.222203 60.536 0.222203M60.4082 6.48139H58.9393L58.4602 6.83267C58.4602 6.83267 58.3644 6.83267 58.3964 6.7688L58.6199 6.22591V1.14831C58.6199 1.14831 58.7157 0.924764 58.8434 0.924764H60.4082C62.6117 0.924764 63.9849 1.62733 63.9849 3.70308C63.9849 5.77882 62.6117 6.48139 60.4082 6.48139Z" fill="#254D6E"></path>
<path d="M88.0022 12.2296C88.0022 12.2296 87.9064 12.2296 87.9384 12.1657L88.1938 11.4951V0.190268H86.5332V12.6767H94.453V11.9103H88.3855L88.0022 12.1977V12.2296Z" fill="#254D6E"></path>
<path d="M120.799 12.2948C118.372 12.2948 115.945 10.6023 115.945 6.45079C115.945 2.29929 118.372 0.606758 120.799 0.606758C122.523 0.606758 124.408 0.958038 125.43 3.54474H125.589V1.21352C124.567 0.479019 122.747 0 120.799 0C117.127 0 114.093 2.4909 114.093 6.45079C114.093 10.4107 117.127 12.9016 120.799 12.9016C122.523 12.9016 124.248 12.5503 125.653 11.6561V9.29297H125.493C124.472 11.9116 122.555 12.2629 120.799 12.2629" fill="#254D6E"></path>
<path d="M74.1731 0.190268L69.2871 12.6767H70.1494L71.778 8.5252C71.778 8.5252 71.9058 8.39746 72.0016 8.39746H76.7917C76.7917 8.39746 76.9514 8.46133 76.9834 8.5252L78.612 12.6767H80.3365L75.4186 0.190268H74.1731ZM76.696 8.11005L75.8657 7.47136C75.8657 7.47136 75.5144 7.27975 75.3228 7.27975H72.5764C72.5764 7.27975 72.3209 7.12008 72.3528 6.96041L74.1412 2.42569C74.205 2.23408 74.4925 2.23408 74.5563 2.42569L76.7279 8.04618C76.7279 8.04618 76.7279 8.11005 76.664 8.11005" fill="#254D6E"></path>
<path d="M103.457 0.190268L98.5709 12.6767H99.4332L101.062 8.5252C101.062 8.5252 101.19 8.39746 101.285 8.39746H106.076C106.076 8.39746 106.235 8.46133 106.267 8.5252L107.896 12.6767H109.62L104.702 0.190268H103.457ZM105.98 8.11005L105.149 7.47136C105.149 7.47136 104.798 7.27975 104.607 7.27975H101.86C101.86 7.27975 101.605 7.12008 101.637 6.96041L103.425 2.42569C103.489 2.23408 103.776 2.23408 103.84 2.42569L106.012 8.04618C106.012 8.04618 106.012 8.11005 105.948 8.11005" fill="#254D6E"></path>
<path d="M132.39 12.7086H140.31V11.9422H134.274C134.274 11.9422 134.051 11.8464 134.051 11.7187V6.89654C134.051 6.89654 134.146 6.67299 134.274 6.67299H139.543V5.90656H134.37L133.859 6.28978C133.859 6.28978 133.763 6.28978 133.795 6.22591L134.019 5.61915V1.18024C134.019 1.18024 134.115 0.956699 134.242 0.956699H140.278V0.190268H132.358V12.6767L132.39 12.7086Z" fill="#254D6E"></path>
<path d="M0.5 0.190268V0.956699H4.93891V12.6767H6.59951V1.40378L6.28016 0.988634L6.18436 0.860895C6.18436 0.860895 6.18436 0.765091 6.24823 0.797026L6.75918 0.988634H11.0704V0.190268H0.5Z" fill="#254D6E"></path>
</svg>